# xmcd CD database file
#
# Track frame offsets:
#	150
#	9182
#	30772
#	46779
#	63758
#	85003
#	108189
#	129039
#	142241
#	158020
#	177115
#	205067
#
# Disc length: 3034 seconds
#
# Revision: 10
# Processed by: cddbd v1.5.1PL0 Copyright (c) Steve Scherf et al.
# Submitted via: CDex 1.51
#
DISCID=7e0bd80c
DTITLE=ASIAN KUNG-FU GENERATION - 君繋ファイブエム
DYEAR=2003
DGENRE=Rock
TTITLE0=フラッシュバック
TTITLE1=未来の破片
TTITLE2=電波塔
TTITLE3=アンダースタンド
TTITLE4=夏の日、残像
TTITLE5=無限グライダー
TTITLE6=その訳を
TTITLE7=N.G.S
TTITLE8=自閉探索
TTITLE9=E
TTITLE10=君という花
TTITLE11=ノーネーム
EXTD=YEAR: 2003
EXTT0=
EXTT1=
EXTT2=
EXTT3=
EXTT4=
EXTT5=
EXTT6=
EXTT7=
EXTT8=
EXTT9=
EXTT10=
EXTT11=
PLAYORDER=
